<?xml version="1.0" encoding="iso-8859-1"?>
<!-- Generator: Adobe Illustrator 19.0.0, SVG Export Plug-In . SVG Version: 6.00 Build 0)  -->
<svg version="1.1" id="Capa_1" xmlns="http://www.w3.org/2000/svg" xmlns:xlink="http://www.w3.org/1999/xlink" x="0px" y="0px"
	 viewBox="0 0 503.972 503.972" style="enable-background:new 0 0 503.972 503.972;" xml:space="preserve">
<g>
	<g>
		<path d="M501.295,121.207c-0.221-0.807-0.361-1.221-0.361-1.193c-0.373-1.557-0.824-3.095-1.352-4.607
			c-0.197-0.709-0.426-1.389-0.705-2.213c-0.238-0.672-0.484-1.34-0.762-2.008c-0.206-0.631-0.444-1.25-0.713-1.857
			c-9.341-23.119-27.688-41.441-50.82-50.75c-0.68-0.287-1.385-0.549-1.746-0.672c-0.746-0.307-1.516-0.59-2.271-0.861
			c-0.729-0.258-1.434-0.492-2.172-0.688c-1.284-0.453-2.6-0.811-3.934-1.144V16.97c-0.011-9.267-7.52-16.776-16.787-16.787H16.787
			C7.52,0.193,0.011,7.703,0,16.97v470.033c0.011,9.267,7.52,16.776,16.787,16.787h402.885c9.267-0.011,16.776-7.52,16.787-16.787
			V231.908c15.365-4.163,29.378-12.262,40.656-23.496c4.15-4.226,7.874-8.85,11.119-13.805c0.841-0.816,1.5-1.799,1.934-2.887
			C503.213,170.67,507.224,145.252,501.295,121.207z M431.59,71.281c1.007,0.216,2.001,0.491,2.975,0.824
			c0.435,0.18,0.885,0.324,1.344,0.43c0.344,0.09,0.684,0.198,1.016,0.324l3.279,1.246c2.856,1.16,5.637,2.497,8.326,4.004
			c2.658,5.319,18.951,40.149,9.281,75.414c-1.904,6.891-4.728,13.494-8.396,19.631c-4.846-1.367-9.586-2.873-14.219-4.516
			c3.565-19.969-1.142-40.53-13.041-56.959c-10.15-15.109-23.468-27.827-39.029-37.269c15.041-6.181,31.666-7.381,47.439-3.424
			C430.901,71.104,431.243,71.203,431.59,71.281z M347.527,105.271c3.168-5.338,6.989-10.261,11.375-14.654v0
			c2.312-2.306,4.77-4.461,7.358-6.453c1.706,0.803,3.386,1.672,4.929,2.526c14.927,8.371,27.645,20.18,37.098,34.447
			c8.541,11.959,12.506,26.586,11.176,41.221C390.91,149.939,366.108,130.257,347.527,105.271z M410.531,176.767
			c-15.006,9.337-45.477,3.082-60.686-3.572c-2.107-0.93-4.164-1.96-6.172-3.09c-0.834-0.47-1.63-1.017-2.445-1.53
			c-0.674-1.856-1.272-3.728-1.768-5.614c-0.549-2.09-1.032-4.205-1.402-6.512c-0.881-4.934-1.244-9.946-1.082-14.955
			c0.008-0.148,0.008-0.295,0.008-0.447c0.017-0.176,0.025-0.357,0.025-0.537c0.023-1.416,0.124-2.829,0.303-4.234
			c0.041-0.336,0.148-1.311,0.148-1.648c0.098-1.029,0.246-2.098,0.467-3.295c0.391-2.475,0.936-4.924,1.631-7.332
			c0.094-0.357,0.254-0.692,0.355-1.048C359.009,146.074,383.173,164.487,410.531,176.767z M193.049,16.97h50.361v50.575
			c-14.825-11.477-35.536-11.477-50.361,0V16.97z M194.596,92.511c3.506-10.052,12.987-16.787,23.633-16.787
			c10.646,0,20.127,6.735,23.633,16.787H194.596z M241.863,109.297c-3.506,10.052-12.987,16.787-23.633,16.787
			c-10.646,0-20.127-6.735-23.633-16.787H241.863z M117.508,16.97h58.754v83.934c0,23.178,18.789,41.967,41.967,41.967
			s41.967-18.789,41.967-41.967V16.97h58.754v33.574c0,55.627-45.094,100.721-100.721,100.721
			c-55.627,0-100.721-45.094-100.721-100.721V16.97z M243.41,487.002h-50.361v-50.575c14.825,11.477,35.536,11.477,50.361,0V487.002
			z M241.863,411.461c-3.506,10.052-12.987,16.787-23.633,16.787c-10.646,0-20.127-6.735-23.633-16.787H241.863z M194.596,394.674
			c3.506-10.052,12.987-16.787,23.633-16.787c10.646,0,20.127,6.735,23.633,16.787H194.596z M318.951,487.002h-58.754v-83.934
			c0-23.178-18.789-41.967-41.967-41.967s-41.967,18.789-41.967,41.967v83.934h-58.754v-33.574
			c0-55.627,45.094-100.721,100.721-100.721c55.627,0,100.721,45.094,100.721,100.721V487.002z M419.672,487.002h-83.934v-33.574
			c0-64.898-52.61-117.508-117.508-117.508c-64.898,0-117.508,52.61-117.508,117.508v33.574H16.787V260.379h143.359
			c4.137,28.899,28.89,50.361,58.084,50.361c29.194,0,53.947-21.462,58.084-50.361h143.359V487.002z M259.348,260.379
			c-3.988,19.54-21.176,33.574-41.119,33.574c-19.942,0-37.131-14.034-41.119-33.574H259.348z M177.111,243.593
			c3.988-19.54,21.176-33.574,41.119-33.574c19.942,0,37.131,14.034,41.119,33.574H177.111z M419.672,243.593H276.314
			c-4.137-28.899-28.89-50.361-58.084-50.361s-53.947,21.462-58.084,50.361H16.787V16.97h83.934v33.574
			c0,64.898,52.61,117.508,117.508,117.508c64.898,0,117.508-52.61,117.508-117.508V16.97h83.934v35.345
			c-20.435-1.769-40.868,3.42-57.982,14.725c-0.504,0.267-0.98,0.586-1.418,0.952c-4.727,3.165-9.153,6.758-13.223,10.732
			c-6.542,6.592-12.041,14.143-16.307,22.392c-0.344,0.529-0.625,1.097-0.837,1.692c-2.735,5.336-4.922,10.935-6.528,16.711
			c-0.842,2.945-1.507,5.938-1.992,8.963c-0.271,1.484-0.484,3.029-0.557,3.939c-0.133,0.752-0.212,1.512-0.238,2.275
			c-0.218,1.852-0.341,3.714-0.369,5.578c-0.008,0.201-0.017,0.41-0.017,0.607c-0.212,6.142,0.225,12.29,1.303,18.34
			c0.426,2.709,1.025,5.357,1.713,8.008c0.697,2.623,1.492,5.193,2.41,7.652c0.912,2.564,1.966,5.076,3.156,7.525
			c9.087,19.422,24.71,35.032,44.139,44.102c2.5,1.215,5.067,2.287,7.688,3.213c2.547,0.942,5.141,1.753,7.771,2.43
			c1.721,0.447,3.418,0.755,5.123,1.096c0.343,0.097,0.692,0.171,1.044,0.223c0.551,0.101,1.128,0.273,1.669,0.357
			c5.076,0.908,10.222,1.367,15.378,1.373c1.082,0,2.156-0.021,3.23-0.061c0.139,0,0.279-0.004,0.426-0.012v0.012
			c1.49-0.025,2.955-0.151,4.418-0.287V243.593z M395.314,216.485c-0.901-0.203-1.817-0.349-2.707-0.581
			c-2.105-0.544-4.182-1.194-6.221-1.947c-2.126-0.75-4.209-1.619-6.238-2.602c-7.905-3.648-15.099-8.671-21.246-14.836
			c-1.119-1.115-2.15-2.291-3.188-3.463c10.919,3.289,22.245,5.035,33.648,5.188c14.327,1.11,28.412-4.167,38.482-14.419
			c3.535,1.284,7.086,2.532,10.744,3.668c-4.019,4.338-8.415,8.312-13.135,11.874C416.125,206.258,406.008,212.004,395.314,216.485z
			 M465.262,196.519c-9.346,9.322-20.991,16.007-33.754,19.377c-0.185,0.052-0.399,0.076-0.584,0.126
			c1.557-1.08,3.164-2.137,4.642-3.257c7.847-5.883,14.894-12.764,20.963-20.468c3.364,0.771,6.777,1.592,9.988,2.209
			c0.159,0.03,0.297,0.045,0.457,0.075C466.38,195.213,465.879,195.904,465.262,196.519z M478.07,179.392
			c-2.771-0.435-5.471-0.816-8.398-1.373c-1.09-0.209-2.277-0.521-3.387-0.749c3.263-6.137,5.849-12.609,7.715-19.304
			c4.723-18.446,4.853-37.769,0.378-56.277c3.098,4.589,5.699,9.495,7.762,14.633v0c0.112,0.413,0.257,0.816,0.434,1.205
			c0.189,0.434,0.344,0.873,0.443,1.16l0.533,1.684c0.402,1.156,0.77,2.307,1.262,4.258l0.238,0.795
			C489.662,143.647,487.166,162.942,478.07,179.392z"/>
	</g>
</g>
<g>
</g>
<g>
</g>
<g>
</g>
<g>
</g>
<g>
</g>
<g>
</g>
<g>
</g>
<g>
</g>
<g>
</g>
<g>
</g>
<g>
</g>
<g>
</g>
<g>
</g>
<g>
</g>
<g>
</g>
</svg>
