<?xml version="1.0" encoding="iso-8859-1"?>
<!-- Generator: Adobe Illustrator 19.0.0, SVG Export Plug-In . SVG Version: 6.00 Build 0)  -->
<svg version="1.1" id="Capa_1" xmlns="http://www.w3.org/2000/svg" xmlns:xlink="http://www.w3.org/1999/xlink" x="0px" y="0px"
	 viewBox="0 0 512 512" style="enable-background:new 0 0 512 512;" xml:space="preserve">
<g>
	<g>
		<g>
			<path d="M201.677,109.646c-19.125,19.01-31.01,46.083-31.01,70.667c0,5.896,4.771,10.667,10.667,10.667
				c5.896,0,10.667-4.771,10.667-10.667c0-18.813,9.698-40.615,24.719-55.542c4.177-4.146,4.198-10.906,0.042-15.083
				S205.854,105.469,201.677,109.646z"/>
			<path d="M394.667,42.667H380.72C376.996,36.409,370.458,32,362.667,32c-11.76,0-21.333,9.573-21.333,21.333
				c0,11.76,9.573,21.333,21.333,21.333c7.792,0,14.329-4.409,18.053-10.667h13.947c5.896,0,10.667-4.771,10.667-10.667
				C405.333,47.438,400.563,42.667,394.667,42.667z"/>
			<path d="M440.979,36.771C429.646,14.094,406.844,0,381.479,0H130.521c-25.365,0-48.167,14.094-59.5,36.771
				C66.427,45.958,64,56.25,64,66.521v25.51c0,3.156,0.219,6.292,0.667,9.406L81.51,219.365C84.49,240.25,102.656,256,123.75,256
				h25.031c4.089,7.48,8.839,14.559,13.928,21.333h-24.043c-17.646,0-32,14.354-32,32c0,14.109,9.238,25.978,21.936,30.223
				c3.023,43.13,27.465,82.16,65.449,103.194c-15.083,15.906-23.385,36.708-23.385,58.583c0,5.896,4.771,10.667,10.667,10.667
				h149.333c5.896,0,10.667-4.771,10.667-10.667c0-21.875-8.302-42.677-23.771-58.552c38.345-21.064,62.81-60.094,65.833-103.225
				c12.699-4.245,21.938-16.113,21.938-30.223c0-17.646-14.354-32-32-32H349.29c5.09-6.775,9.84-13.853,13.928-21.333h25.031
				c21.094,0,39.26-15.75,42.24-36.635l16.844-117.927c0.448-3.115,0.667-6.25,0.667-9.406v-25.51
				C448,56.25,445.573,45.958,440.979,36.771z M307.302,424.083c-5.74,3.146-9.604,8.635-10.615,15.063
				c-1.031,6.656,1.073,13.313,5.781,18.271c8.823,9.313,14.542,20.844,16.635,33.25H192.896
				c2.083-12.406,7.813-23.938,16.635-33.24c4.708-4.969,6.813-11.625,5.781-18.281c-1.01-6.427-4.875-11.917-10.604-15.052
				c-30.993-17.033-51.15-48.125-54.651-82.76h211.885C358.441,375.969,338.286,407.06,307.302,424.083z M373.333,298.667
				c5.885,0,10.667,4.781,10.667,10.667c0,5.885-4.781,10.667-10.667,10.667H138.667c-5.885,0-10.667-4.781-10.667-10.667
				c0-5.885,4.781-10.667,10.667-10.667H373.333z M321.456,277.333H190.544c-25.078-26.214-41.211-63.777-41.211-97.021
				C149.333,125.406,194.948,64,256,64s106.667,61.406,106.667,116.313C362.667,213.556,346.534,251.12,321.456,277.333z
				 M426.667,92.031c0,2.135-0.156,4.271-0.458,6.385l-16.844,117.927c-1.49,10.448-10.563,18.323-21.115,18.323h-15.288
				C379.939,216.678,384,197.996,384,180.313c0-64.979-54.74-137.646-128-137.646s-128,72.667-128,137.646
				c0,17.684,4.061,36.366,11.038,54.354H123.75c-10.552,0-19.625-7.875-21.115-18.323L85.792,98.417
				c-0.302-2.115-0.458-4.25-0.458-6.385v-25.51c0-6.979,1.646-13.969,4.771-20.208c7.698-15.406,23.188-24.979,40.417-24.979
				h250.958c17.229,0,32.719,9.573,40.417,24.979c3.125,6.24,4.771,13.229,4.771,20.208V92.031z"/>
		</g>
	</g>
</g>
<g>
</g>
<g>
</g>
<g>
</g>
<g>
</g>
<g>
</g>
<g>
</g>
<g>
</g>
<g>
</g>
<g>
</g>
<g>
</g>
<g>
</g>
<g>
</g>
<g>
</g>
<g>
</g>
<g>
</g>
</svg>
